<svg width="424" height="379" viewBox="0 0 424 379" fill="none" xmlns="http://www.w3.org/2000/svg">
<path fill-rule="evenodd" clip-rule="evenodd" d="M394.769 210.524C403.253 202.244 406 195.095 406 189.347C406 183.599 403.253 176.451 394.769 168.171C386.226 159.835 372.931 151.498 355.039 144.114C319.341 129.38 268.778 119.847 212 119.847C155.222 119.847 104.659 129.38 68.9607 144.114C51.0695 151.498 37.7741 159.835 29.2312 168.171C20.7465 176.451 18 183.599 18 189.347C18 195.095 20.7465 202.244 29.2312 210.524C37.7741 218.86 51.0695 227.196 68.9607 234.581C104.659 249.315 155.222 258.847 212 258.847C268.778 258.847 319.341 249.315 355.039 234.581C372.931 227.196 386.226 218.86 394.769 210.524ZM212 276.847C329.084 276.847 424 237.672 424 189.347C424 141.022 329.084 101.847 212 101.847C94.9156 101.847 0 141.022 0 189.347C0 237.672 94.9156 276.847 212 276.847Z" fill="#FF8A00"/>
<path fill-rule="evenodd" clip-rule="evenodd" d="M285.045 358.218C296.458 361.426 304.022 360.23 309 357.356C313.978 354.482 318.796 348.529 321.724 337.042C324.672 325.475 325.243 309.793 322.693 290.606C317.604 252.323 300.578 203.769 272.189 154.597C243.8 105.426 210.263 66.404 179.654 42.855C164.313 31.053 150.446 23.7071 138.955 20.4769C127.542 17.2687 119.978 18.4644 115 21.3385C110.022 24.2125 105.204 30.1654 102.276 41.6531C99.3285 53.2196 98.7565 68.902 101.307 88.0884C106.396 126.372 123.422 174.926 151.811 224.097C180.2 273.269 213.737 312.291 244.346 335.84C259.687 347.642 273.554 354.988 285.045 358.218ZM136.223 233.097C194.765 334.495 276.149 397.107 318 372.945C359.851 348.782 346.319 246.995 287.777 145.597C229.235 44.1994 147.851 -18.4125 106 5.74999C64.1494 29.9125 77.6806 131.699 136.223 233.097Z" fill="#FF8A00"/>
<path fill-rule="evenodd" clip-rule="evenodd" d="M102.276 337.042C105.204 348.529 110.022 354.482 115 357.356C119.978 360.23 127.542 361.426 138.955 358.218C150.446 354.988 164.313 347.642 179.654 335.84C210.263 312.291 243.8 273.269 272.189 224.097C300.578 174.926 317.604 126.372 322.693 88.0884C325.243 68.902 324.672 53.2196 321.724 41.6531C318.796 30.1654 313.978 24.2125 309 21.3385C304.022 18.4644 296.458 17.2687 285.045 20.4769C273.554 23.7071 259.687 31.053 244.346 42.855C213.737 66.404 180.2 105.426 151.811 154.597C123.422 203.769 106.396 252.323 101.307 290.606C98.7565 309.793 99.3284 325.475 102.276 337.042ZM136.223 145.597C77.6806 246.995 64.1494 348.782 106 372.945C147.851 397.107 229.235 334.495 287.777 233.097C346.319 131.699 359.851 29.9125 318 5.75001C276.149 -18.4125 194.765 44.1993 136.223 145.597Z" fill="#FF8A00"/>
<path fill-rule="evenodd" clip-rule="evenodd" d="M212 131.676L259.964 222.808L244.036 231.192L212 170.324L179.964 231.192L164.036 222.808L212 131.676Z" fill="#FF8A00"/>
</svg>
