<svg width="450" height="450" viewBox="0 0 450 450" fill="none" xmlns="http://www.w3.org/2000/svg">
<g clip-path="url(#clip0)">
<path d="M131.586 48.3019C136.181 45.8128 142.733 45.0564 152.049 47.7966C161.431 50.5561 172.613 56.6153 185.049 66.1791C190.464 70.3434 198.22 69.3178 202.373 63.8882C206.526 58.4586 205.503 50.6812 200.088 46.5169C186.231 35.8598 172.314 27.9336 159.005 24.019C145.632 20.0854 131.902 19.9673 119.84 26.5008C105.971 34.0107 98.2604 48.1199 94.6688 64.1114C91.0683 80.1429 91.1846 99.6421 94.2178 120.956C100.299 163.686 118.508 216.47 147.035 269.531C175.561 322.594 209.52 366.849 241.766 395.412C257.851 409.659 274.027 420.464 289.358 426.247C304.654 432.017 320.644 433.294 334.515 425.783C347.962 418.501 355.626 405 359.346 389.63C363.067 374.251 363.245 355.586 360.657 335.189C355.469 294.301 338.808 243.714 312.389 192.371C309.26 186.29 301.807 183.903 295.743 187.041C289.679 190.178 287.299 197.651 290.428 203.732C315.903 253.241 331.41 301.025 336.142 338.316C338.514 357.009 338.089 372.386 335.33 383.787C332.569 395.198 327.874 401.217 322.772 403.98C317.516 406.826 309.606 407.41 298.059 403.054C286.548 398.712 272.939 389.96 258.127 376.841C228.581 350.67 196.3 308.951 168.788 257.773C141.274 206.597 124.255 156.612 118.682 117.455C115.889 97.8253 116.072 81.6009 118.777 69.5554C121.491 57.471 126.327 51.1493 131.586 48.3019Z" fill="#FF7A00"/>
<path fill-rule="evenodd" clip-rule="evenodd" d="M266.5 66.7335C234.719 89.8639 198.721 128.191 166.525 176.394C134.326 224.599 112.631 272.648 103.319 311.052C98.6501 330.304 97.2579 346.464 98.7696 358.717C100.287 371.017 104.465 377.774 109.38 381.111L109.382 381.112C114.118 384.328 121.488 385.703 132.683 382.903C143.879 380.104 157.483 373.419 172.711 362.727C178.301 358.802 186.006 360.165 189.92 365.77C193.834 371.375 192.475 379.101 186.885 383.025C170.248 394.706 153.842 403.151 138.662 406.947C123.484 410.742 108.114 410.178 95.5253 401.629C82.508 392.792 76.248 378 74.2442 361.759C72.2346 345.47 74.2382 326.095 79.306 305.197C89.466 263.299 112.606 212.587 145.992 162.605C179.373 112.627 217.284 71.9345 251.984 46.6797C269.291 34.0834 286.364 24.9137 302.12 20.6591C317.843 16.4134 333.835 16.7068 346.869 25.5562C358.967 33.7662 365.241 47.1491 367.662 61.9854C370.081 76.8019 368.919 94.3259 365.053 113.212C363.681 119.915 357.15 124.233 350.465 122.857C343.781 121.482 339.474 114.933 340.846 108.23C344.363 91.0472 345.036 76.7774 343.275 65.9881C341.517 55.2185 337.595 49.1836 333.018 46.0775L333.015 46.0755C328.116 42.7485 320.379 41.3908 308.546 44.5861C296.745 47.7728 282.434 55.1372 266.5 66.7335Z" fill="#FF7A00"/>
<path fill-rule="evenodd" clip-rule="evenodd" d="M375.274 176.968C339.806 160.064 289.014 146.723 231.395 141.458C173.772 136.191 121.316 140.097 83.2325 150.285C64.1408 155.392 49.3249 161.904 39.3204 169.101C29.2772 176.326 25.362 183.239 24.7934 189.163L24.7933 189.165C24.2446 194.874 26.5691 202.02 34.3802 210.535C42.1916 219.051 54.5578 227.826 71.2099 236.114C77.3225 239.156 79.8184 246.59 76.7846 252.72C73.7509 258.849 66.3362 261.352 60.2235 258.31C42.0307 249.256 26.7821 238.856 16.1917 227.31C5.60127 215.765 -1.26303 201.965 0.194718 186.79C1.70049 171.099 11.6539 158.507 24.9149 148.967C38.2145 139.399 56.1381 131.887 76.8622 126.343C118.41 115.228 173.891 111.32 233.638 116.781C293.378 122.24 347.157 136.131 385.883 154.588C405.198 163.793 421.4 174.432 432.669 186.266C443.913 198.075 451.313 212.294 449.805 228.005C448.409 242.586 439.695 254.515 427.864 263.75C416.049 272.973 400.15 280.34 381.763 285.979C375.237 287.98 368.329 284.298 366.333 277.755C364.338 271.211 368.01 264.284 374.536 262.283C391.264 257.153 404.08 250.913 412.684 244.197C421.271 237.494 424.678 231.152 425.206 225.636L425.207 225.633C425.774 219.727 423.259 212.266 414.796 203.378C406.356 194.515 393.056 185.442 375.274 176.968Z" fill="#FF7A00"/>
<path d="M232.492 255.208C233.946 251.818 235.25 248.72 236.404 245.915C238.605 256.52 240.519 264.315 242.153 269.128L242.172 269.182L242.191 269.236C243.725 273.41 245.827 276.962 248.679 279.562C251.576 282.203 255.037 283.69 258.929 283.69C263.801 283.69 268.219 282.457 271.76 279.589L271.801 279.556L271.841 279.522C274.943 276.89 277.234 273.696 278.599 269.964C279.84 266.572 280.49 263.149 280.49 259.719C280.49 258.464 280.209 256.67 278.841 255.183C277.409 253.628 275.557 253.234 274.169 253.234C273.317 253.234 272.416 253.418 271.751 253.572C271.01 253.743 270.138 253.983 269.158 254.276C267.663 254.641 265.83 254.851 263.618 254.851C260.514 254.851 258.563 254.188 257.336 253.315C256.171 252.317 254.808 250.285 253.595 246.547L253.585 246.517C252.879 244.394 252.139 241.542 251.376 237.911C250.599 234.207 249.723 229.912 248.748 225.025L245.668 210.172C242.993 196.572 239.375 186.062 234.512 179.191C229.4 171.968 222.327 168.154 213.646 168.154C209.347 168.154 205.351 169.339 201.767 171.694C198.427 173.888 195.706 176.647 193.677 179.969C191.7 182.963 190.326 186.181 190.326 189.48C190.326 190.64 190.532 192.354 191.704 193.849C193.04 195.554 194.927 196.112 196.5 196.112C197.648 196.112 198.783 195.707 199.328 195.511C200.097 195.233 201.011 194.849 202.036 194.386L202.179 194.322L202.318 194.247C204.508 193.071 206.46 192.585 208.224 192.585C213.932 192.585 218.088 193.964 221.097 196.319C223.983 198.578 226.692 202.95 228.723 210.329C228.928 211.165 229.014 211.902 229.014 212.55C229.014 213.286 228.911 213.971 228.712 214.62C225.104 223.069 220.932 231.185 216.199 238.969L216.178 239.004C211.444 246.948 206.22 255.097 200.505 263.45L200.488 263.475L200.471 263.5C200.33 263.712 200.055 264.109 199.619 264.721C199.002 265.48 198.45 266.291 197.961 267.148C197.132 268.602 196.774 270.185 196.774 271.769C196.774 274.868 198.381 277.311 200.419 279.062L200.477 279.113L200.538 279.161C202.42 280.671 204.561 281.829 206.914 282.665C209.07 283.522 211.274 284.131 213.353 284.131C215.654 284.131 217.686 283.252 219.315 281.8C220.93 280.361 222.171 278.173 223.194 275.926C225.489 271.22 228.592 264.3 232.492 255.208Z" fill="#FF7A00"/>
</g>
<defs>
<clipPath id="clip0">
<rect width="450" height="450" fill="white"/>
</clipPath>
</defs>
</svg>
