<?xml version="1.0" encoding="utf-8"?>
<svg xmlns="http://www.w3.org/2000/svg" width="250" height="230" viewBox="0 0 250 230" fill="none">
<path d="M73.4754 11.0999C76.7569 9.41331 81.0855 9.16198 86.6565 10.9487C92.253 12.7436 98.7175 16.4905 105.731 22.1687C107.809 23.8508 110.848 23.5193 112.52 21.4283C114.191 19.3373 113.862 16.2786 111.784 14.5965C104.225 8.47666 96.7087 3.97277 89.5886 1.68923C82.4433 -0.602371 75.3186 -0.759336 69.0833 2.44503C61.9165 6.1269 57.6467 13.3434 55.4956 22.0142C53.3405 30.7007 53.1325 41.4596 54.5487 53.4233C57.3859 77.3912 66.8748 107.278 82.1961 137.539C97.5162 167.799 115.961 193.085 133.555 209.472C142.337 217.652 151.105 223.8 159.352 227.144C167.585 230.482 175.894 231.237 183.061 227.555C190.011 223.985 194.239 217.085 196.447 208.772C198.656 200.456 199.014 190.175 197.835 178.738C195.473 155.827 186.826 127.205 172.667 97.9406C171.499 95.5278 168.609 94.5244 166.212 95.6993C163.814 96.8742 162.817 99.7826 163.985 102.195C177.792 130.731 186.014 158.244 188.23 179.74C189.34 190.507 188.915 199.497 187.118 206.263C185.32 213.032 182.32 217.025 178.671 218.899C174.911 220.831 169.742 220.879 162.961 218.129C156.193 215.385 148.409 210.066 140.114 202.34C123.553 186.915 105.741 162.639 90.8001 133.126C75.8577 103.615 66.8082 74.8358 64.1374 52.2737C62.7996 40.9723 63.0952 31.5002 64.8645 24.3684C66.6376 17.2214 69.7138 13.0322 73.4754 11.0999Z" fill="#FF8A00"/>
<path d="M9.67259 110.692C9.8916 106.477 12.424 101.971 18.1638 97.4533C23.892 92.945 32.336 88.8358 43.0994 85.4794C64.5875 78.7788 94.2904 75.3955 127.052 77.1069C159.814 78.8193 189.006 85.281 209.686 94.1859C220.045 98.6465 228.018 103.614 233.25 108.695C238.491 113.786 240.545 118.531 240.327 122.747C240.137 126.393 238.234 130.23 234.012 134.135C229.77 138.06 223.459 141.779 215.24 145.031C212.759 146.014 211.538 148.834 212.514 151.332C213.49 153.829 216.293 155.058 218.775 154.075C227.646 150.564 235.13 146.302 240.548 141.29C245.987 136.257 249.609 130.198 249.971 123.254C250.388 115.19 246.322 107.886 239.956 101.702C233.578 95.5078 224.452 89.9739 213.485 85.2512C191.512 75.7896 161.147 69.1576 127.553 67.4017C93.9589 65.6468 63.0722 69.0772 40.2414 76.1965C28.8455 79.7501 19.1978 84.3024 12.2151 89.798C5.2447 95.284 0.446864 102.124 0.0290436 110.188C-0.328395 117.131 2.64869 123.536 7.53904 129.109C12.4105 134.661 19.4146 139.682 27.8763 144.099C30.2434 145.335 33.1577 144.405 34.3855 142.023C35.6133 139.641 34.6897 136.708 32.3226 135.472C24.4841 131.38 18.5912 127.023 14.7772 122.677C10.9826 118.352 9.4855 114.336 9.67259 110.692Z" fill="#FF8A00"/>
<path fill-rule="evenodd" clip-rule="evenodd" d="M143.572 28.5707C125.608 42.17 105.499 64.4372 87.6924 92.209L87.6923 92.2091C69.8842 119.982 57.9813 147.643 53.0266 169.791C50.5448 180.885 49.8662 190.333 50.8864 197.61C51.9092 204.905 54.5248 209.388 58.0422 211.698L58.0427 211.698C61.4361 213.927 66.3019 214.552 72.9375 212.765C79.5733 210.978 87.427 206.902 96.0391 200.609C98.197 199.033 101.216 199.515 102.783 201.687C104.349 203.859 103.87 206.897 101.712 208.474C92.5561 215.163 83.6192 219.948 75.4338 222.153C67.2484 224.357 59.2626 224.104 52.7656 219.837C46.046 215.425 42.5635 207.805 41.3245 198.967C40.083 190.112 40.9791 179.399 43.6059 167.657C48.8683 144.132 61.3183 115.418 79.5784 86.9398C97.836 58.4644 118.677 35.2564 137.767 20.8045C147.295 13.591 156.605 8.39291 165.114 5.92907C173.611 3.46887 181.924 3.58507 188.651 8.00289C194.896 12.1023 198.349 18.9846 199.795 27.0106C201.239 35.0295 200.79 44.6823 198.818 55.2681C198.326 57.9058 195.803 59.6431 193.182 59.1485C190.561 58.6539 188.835 56.1148 189.327 53.4771C191.174 43.5616 191.454 35.1882 190.293 28.7441C189.134 22.3077 186.648 18.2907 183.375 16.1423L183.373 16.1415C179.862 13.8353 174.767 13.2464 167.784 15.2685C160.813 17.2869 152.57 21.7586 143.572 28.5707Z" fill="#FF8A00"/>
<path d="M112.735 142.958L112.748 142.969L112.761 142.98C113.681 143.732 114.736 144.332 115.914 144.783C117.053 145.22 118.094 145.476 119 145.476C119.874 145.476 120.7 145.26 121.355 144.709C121.74 144.432 122.067 144.024 122.35 143.589C122.66 143.114 122.974 142.519 123.295 141.819C124.388 139.463 125.94 135.817 127.948 130.894C129.518 127.141 130.736 124.079 131.598 121.716C131.845 122.814 132.189 124.36 132.63 126.357C133.764 131.651 134.78 135.593 135.679 138.148L135.686 138.166L135.693 138.184C136.503 140.25 137.526 141.944 138.79 143.216C140.092 144.526 141.616 145.243 143.335 145.243C147.034 145.243 149.884 144.003 151.579 141.322L151.585 141.313C153.128 138.816 153.91 136.132 153.91 133.279C153.91 132.993 153.887 132.704 153.82 132.434C153.754 132.17 153.627 131.848 153.364 131.582C152.937 131.153 152.384 131.033 151.91 131.033C151.63 131.033 151.273 131.095 150.912 131.173C150.529 131.256 150.05 131.377 149.482 131.532C148.509 131.764 147.289 131.888 145.807 131.888C143.918 131.888 142.569 131.439 141.634 130.667C140.669 129.818 139.799 128.329 139.108 126.045L139.102 126.026C138.507 124.18 137.643 120.382 136.508 114.567L134.805 106.313C133.405 99.5801 131.484 94.5809 128.952 91.4736C126.424 88.2555 123.02 86.6395 118.846 86.6395C116.735 86.6395 114.803 87.2169 113.078 88.3734C111.46 89.4406 110.161 90.7723 109.199 92.3679C108.262 93.9201 107.73 95.4369 107.73 96.8934C107.73 97.1787 107.753 97.4681 107.82 97.7383C107.885 98.0021 108.012 98.3244 108.276 98.5899C108.702 99.0193 109.255 99.1394 109.73 99.1394C110.071 99.1394 110.463 99.0116 110.769 98.9006C111.127 98.7711 111.571 98.5846 112.094 98.3477C113.548 97.7147 114.788 97.4289 115.833 97.4289C118.078 97.4289 119.916 97.6809 121.374 98.1543L121.39 98.1591L121.405 98.1636C122.778 98.5649 124.054 99.3972 125.23 100.722C126.381 102.02 127.403 103.964 128.253 106.63L128.257 106.642C128.42 107.136 128.511 107.717 128.511 108.4C128.511 109.019 128.423 109.493 128.284 109.85C126.141 114.777 123.798 119.313 121.254 123.46L121.249 123.468C118.738 127.646 116.021 131.851 113.097 136.083L113.086 136.1C113.008 136.218 112.726 136.598 112.201 137.285C111.58 138.097 111.206 138.997 111.206 139.965C111.206 141.149 111.808 142.149 112.735 142.958Z" fill="#FF8A00"/>
</svg>
