<svg width="424" height="455" viewBox="0 0 424 455" fill="none" xmlns="http://www.w3.org/2000/svg">
<path d="M415 227.347C415 236.262 410.661 245.591 401.054 254.965C391.419 264.367 377.01 273.249 358.473 280.9C321.441 296.184 269.66 305.847 212 305.847C154.34 305.847 102.559 296.184 65.527 280.9C46.9903 273.249 32.581 264.367 22.9456 254.965C13.3394 245.591 9 236.262 9 227.347C9 218.433 13.3394 209.104 22.9456 199.73C32.581 190.327 46.9903 181.446 65.527 173.795C102.559 158.511 154.34 148.847 212 148.847C269.66 148.847 321.441 158.511 358.473 173.795C377.01 181.446 391.419 190.327 401.054 199.73C410.661 209.104 415 218.433 415 227.347Z" stroke="#FF8A00" stroke-width="18"/>
<path d="M313.5 403.151C305.78 407.608 295.531 408.514 282.61 404.882C269.649 401.239 254.753 393.201 238.859 380.973C207.106 356.545 172.847 316.533 144.017 266.597C115.187 216.662 97.6648 166.987 92.3856 127.274C89.743 107.396 90.2303 90.4759 93.5553 77.4303C96.8702 64.4241 102.78 56.0016 110.5 51.5442C118.22 47.0869 128.469 46.1804 141.39 49.8127C154.351 53.456 169.247 61.4939 185.141 73.7218C216.894 98.15 251.153 138.162 279.983 188.097C308.813 238.033 326.335 287.708 331.614 327.42C334.257 347.299 333.77 364.219 330.445 377.265C327.13 390.271 321.22 398.693 313.5 403.151Z" stroke="#FF8A00" stroke-width="18"/>
<path d="M110.5 403.151C102.78 398.693 96.8702 390.271 93.5553 377.264C90.2303 364.219 89.743 347.299 92.3856 327.42C97.6648 287.708 115.187 238.033 144.017 188.097C172.847 138.162 207.106 98.15 238.859 73.7218C254.753 61.4939 269.649 53.456 282.61 49.8127C295.531 46.1804 305.78 47.0869 313.5 51.5442C321.22 56.0016 327.13 64.4241 330.445 77.4303C333.77 90.4759 334.257 107.396 331.614 127.274C326.335 166.987 308.813 216.662 279.983 266.597C251.153 316.533 216.894 356.545 185.141 380.973C169.247 393.201 154.351 401.239 141.39 404.882C128.469 408.514 118.22 407.608 110.5 403.151Z" stroke="#FF8A00" stroke-width="18"/>
<path d="M252 265L212 189L172 265" stroke="#FF8A00" stroke-width="18"/>
</svg>
