<?xml version="1.0" standalone="no"?>
<!DOCTYPE svg PUBLIC "-//W3C//DTD SVG 20010904//EN"
 "http://www.w3.org/TR/2001/REC-SVG-20010904/DTD/svg10.dtd">
<svg version="1.0" xmlns="http://www.w3.org/2000/svg"
 width="250.000000pt" height="250.000000pt" viewBox="0 0 250.000000 250.000000"
 preserveAspectRatio="xMidYMid meet">
<metadata>
Created by potrace 1.11, written by Peter Selinger 2001-2013
</metadata>
<g transform="translate(0.000000,250.000000) scale(0.100000,-0.100000)"
fill="#000000" stroke="none">
<path d="M705 2380 c-78 -36 -122 -97 -151 -213 -25 -96 -19 -292 14 -447 l8
-35 -121 -33 c-211 -57 -362 -147 -422 -250 -38 -64 -40 -148 -7 -219 31 -63
120 -149 209 -199 63 -34 67 -35 90 -20 14 9 25 24 25 34 -1 18 -23 52 -34 52
-14 0 -128 82 -158 113 -83 88 -80 168 11 250 68 61 205 122 352 156 l79 18
22 -71 c12 -39 22 -73 23 -76 0 -3 9 -26 19 -51 l18 -46 -55 -109 c-74 -149
-141 -321 -179 -462 -28 -104 -31 -133 -32 -262 -1 -132 1 -150 23 -197 69
-153 232 -189 421 -93 75 38 169 99 171 111 1 5 2 15 3 22 4 24 -15 47 -40 47
-14 0 -45 -13 -68 -29 -107 -74 -212 -113 -283 -106 -59 6 -87 28 -112 85 -63
146 -2 457 153 780 l43 90 86 -173 c271 -543 625 -919 888 -943 210 -20 314
182 275 531 -4 33 -9 71 -11 85 -3 14 -7 34 -9 45 -29 146 -93 344 -173 531
-60 142 -81 167 -122 144 -27 -14 -31 -42 -12 -81 214 -443 297 -921 189
-1097 -38 -62 -113 -80 -198 -46 -115 44 -288 191 -413 351 -52 66 -183 256
-215 312 -46 79 -61 107 -112 211 -32 63 -70 143 -84 178 l-27 64 27 46 c39
68 155 242 166 248 18 12 300 5 458 -10 460 -45 885 -217 952 -385 13 -34 12
-85 -3 -113 -23 -43 -95 -100 -176 -139 -81 -40 -100 -60 -87 -93 18 -46 86
-30 206 47 226 144 220 354 -15 516 -188 129 -460 211 -882 265 -22 3 -114 9
-205 12 -91 4 -166 8 -168 9 -1 1 32 42 75 91 259 299 529 471 665 424 79 -28
109 -99 103 -245 -2 -55 -6 -114 -10 -131 -10 -52 37 -82 78 -51 19 15 35 118
32 220 -7 288 -200 390 -470 249 -153 -81 -370 -274 -535 -477 -56 -69 -79
-90 -99 -91 -41 -2 -153 -14 -193 -21 -31 -4 -38 -2 -38 11 0 21 0 21 -11 58
-27 97 -31 314 -6 399 18 61 62 115 102 125 67 17 175 -20 268 -91 54 -41 94
-46 106 -12 5 12 6 30 2 39 -13 35 -174 137 -244 155 -56 14 -144 11 -182 -7z
m126 -793 c-11 -17 -33 -53 -48 -79 -15 -27 -31 -48 -35 -48 -5 0 -48 123 -48
140 0 3 14 7 32 8 18 2 33 4 35 6 2 1 21 3 44 4 l41 2 -21 -33z"/>
<path d="M1165 1531 c-48 -14 -85 -58 -85 -102 0 -19 3 -21 33 -14 85 21 140
-2 163 -68 12 -35 11 -41 -25 -109 -20 -40 -60 -109 -89 -152 -29 -43 -52 -82
-52 -85 1 -25 61 -62 89 -54 17 4 57 79 97 182 20 51 23 47 45 -53 19 -87 45
-120 96 -124 33 -2 46 2 67 22 26 26 43 86 31 106 -4 6 -20 8 -41 4 -48 -9
-79 1 -92 31 -7 14 -26 89 -43 167 -29 135 -54 194 -92 227 -21 17 -76 29
-102 22z"/>
</g>
</svg>
