<svg width="128" height="120" viewBox="0 0 128 120" fill="none" xmlns="http://www.w3.org/2000/svg">
<path d="M40.9826 17.7935C42.2059 17.1687 43.9336 17.0103 46.3666 17.7856C48.8169 18.5665 51.7204 20.2236 54.9323 22.8074C56.3309 23.9325 58.3767 23.7108 59.5018 22.3122C60.6268 20.9136 60.4051 18.8678 59.0066 17.7428C55.4275 14.8636 51.8161 12.7002 48.3403 11.5925C44.8476 10.4795 41.2378 10.3648 38.0263 12.0047C34.3339 13.8896 32.2205 17.5427 31.1789 21.7144C30.1347 25.8967 30.0468 31.0109 30.7149 36.6188C32.0543 47.8616 36.5216 61.8147 43.7007 75.9035C50.8791 89.9927 59.5399 101.805 67.8458 109.492C71.9887 113.326 76.1768 116.258 80.173 117.868C84.16 119.475 88.3569 119.907 92.05 118.022C95.6304 116.194 97.7278 112.7 98.7991 108.692C99.8711 104.682 100.031 99.7883 99.4747 94.4235C98.359 83.6692 94.2855 70.3016 87.6504 56.6762C86.8646 55.0624 84.9193 54.3913 83.3056 55.1771C81.6918 55.9629 81.0207 57.9082 81.8065 59.522C88.2044 72.6605 91.9919 85.286 93.0094 95.0942C93.5195 100.011 93.3143 104.041 92.5196 107.014C91.7243 109.989 90.4532 111.539 89.0946 112.233C87.6953 112.947 85.6118 113.052 82.602 111.839C79.6013 110.63 76.076 108.252 72.2608 104.722C64.6505 97.6784 56.4157 86.5413 49.4922 72.9525C42.5682 59.3643 38.3966 46.1525 37.1693 35.8499C36.554 30.685 36.7008 26.4314 37.4853 23.289C38.2724 20.1365 39.5824 18.5081 40.9826 17.7935Z" fill="#FF752F"/>
<path fill-rule="evenodd" clip-rule="evenodd" d="M75.4867 21.8661C67.044 27.817 57.4371 37.7383 48.7942 50.264L48.7941 50.2641C40.1505 62.7904 34.27 75.3138 31.681 85.3527C30.3832 90.3853 29.9582 94.6189 30.3112 97.8382C30.6656 101.07 31.74 102.857 33.0204 103.751L33.0208 103.751C34.2546 104.612 36.1879 104.999 39.1425 104.306C42.0972 103.612 45.6994 101.908 49.7433 99.1597C51.2278 98.1507 53.2492 98.5361 54.2582 100.021C55.2672 101.505 54.8818 103.526 53.3973 104.535C48.9792 107.539 44.6336 109.694 40.6277 110.634C36.6218 111.574 32.5817 111.37 29.3019 109.082C25.9105 106.716 24.3179 102.814 23.85 98.5467C23.3807 94.267 23.9781 89.1924 25.387 83.7295C28.2114 72.7774 34.4819 59.5606 43.4442 46.5725C52.4052 33.5857 62.5238 23.0507 71.7418 16.5532C76.3395 13.3125 80.8629 10.9697 85.0223 9.91119C89.1729 8.85495 93.3779 8.99022 96.7737 11.3589C99.9256 13.5564 101.527 17.0894 102.11 20.9896C102.692 24.8847 102.323 29.4768 101.237 34.4162C100.852 36.1693 99.1185 37.2782 97.3654 36.893C95.6123 36.5077 94.5035 34.7743 94.8887 33.0212C95.8762 28.5273 96.1051 24.7869 95.6811 21.9506C95.2579 19.1194 94.2486 17.5222 93.0562 16.6909L93.0554 16.6903C91.779 15.7998 89.7491 15.4155 86.6253 16.2104C83.5101 17.0032 79.7194 18.8826 75.4867 21.8661Z" fill="#FF752F"/>
<path fill-rule="evenodd" clip-rule="evenodd" d="M103.43 49.9755C94.0305 45.6927 80.616 42.4095 65.4403 41.2735L65.4403 41.2735C50.2637 40.137 36.4846 41.3843 26.5122 44.2183C21.5128 45.639 17.644 47.4097 15.0434 49.3399C12.4327 51.2775 11.4323 53.1073 11.3079 54.6636L11.3079 54.664C11.1878 56.1636 11.8294 58.0281 13.9197 60.2283C16.0102 62.4286 19.2996 64.6776 23.7141 66.7804C25.3345 67.5523 26.0224 69.4917 25.2506 71.1122C24.4787 72.7326 22.5393 73.4206 20.9188 72.6487C16.0959 70.3513 12.0415 67.6885 9.20739 64.7053C6.37326 61.7222 4.50952 58.1319 4.82858 54.1456C5.15809 50.0238 7.7224 46.6788 11.1695 44.1204C14.6266 41.5545 19.3086 39.508 24.7354 37.9658C35.6151 34.8741 50.1894 33.6133 65.9256 34.7916C81.6599 35.9695 95.8623 39.3844 106.125 44.0606C111.244 46.3929 115.55 49.1145 118.564 52.1703C121.571 55.2197 123.577 58.9176 123.247 63.0447C122.942 66.8749 120.701 70.0409 117.629 72.5133C114.56 74.9825 110.41 76.9823 105.599 78.5394C103.891 79.092 102.058 78.1556 101.506 76.4479C100.953 74.7401 101.89 72.9077 103.597 72.3551C107.975 70.9385 111.319 69.2475 113.553 67.4495C115.783 65.6548 116.652 63.9771 116.768 62.5281L116.768 62.5271C116.892 60.9757 116.199 59.0295 113.936 56.7346C111.678 54.4458 108.142 52.1227 103.43 49.9755Z" fill="#FF752F"/>
<path d="M66.0085 71.1366C66.3909 70.2474 66.734 69.4346 67.0374 68.699C67.6165 71.4807 68.12 73.5256 68.5498 74.7881L68.5546 74.8022L68.5597 74.8162C68.9632 75.9113 69.5159 76.8428 70.2662 77.5249C71.0282 78.2177 71.9386 78.6079 72.9621 78.6079C74.2438 78.6079 75.4056 78.2844 76.3372 77.532L76.3479 77.5234L76.3583 77.5145C77.1744 76.824 77.777 75.9863 78.136 75.0072C78.4623 74.1174 78.6334 73.2197 78.6334 72.3199C78.6334 71.9907 78.5594 71.52 78.1995 71.1301C77.8229 70.7221 77.3358 70.6188 76.9708 70.6188C76.7466 70.6188 76.5097 70.667 76.3348 70.7073C76.1399 70.7523 75.9106 70.8151 75.6527 70.892C75.2594 70.9877 74.7775 71.0428 74.1956 71.0428C73.379 71.0428 72.8661 70.8689 72.5432 70.64C72.2368 70.3782 71.8784 69.8451 71.5592 68.8647L71.5565 68.8568C71.3709 68.2998 71.1762 67.5519 70.9756 66.5992C70.7711 65.6277 70.5407 64.5011 70.2843 63.2191L69.4742 59.3231C68.7707 55.7555 67.8191 52.9987 66.54 51.1963C65.1953 49.3016 63.335 48.301 61.0516 48.301C59.9209 48.301 58.8696 48.612 57.927 49.2296C57.0485 49.8052 56.3328 50.5289 55.7992 51.4003C55.2791 52.1857 54.9178 53.0297 54.9178 53.8952C54.9178 54.1995 54.972 54.6491 55.2802 55.0413C55.6316 55.4886 56.128 55.6348 56.5418 55.6348C56.8436 55.6348 57.1422 55.5287 57.2855 55.4771C57.4877 55.4043 57.7282 55.3035 57.9978 55.1822L58.0356 55.1652L58.0721 55.1457C58.6481 54.8371 59.1615 54.7097 59.6254 54.7097C61.1269 54.7097 62.2199 55.0714 63.0114 55.6892C63.7705 56.2816 64.4829 57.4287 65.0171 59.3641C65.071 59.5836 65.0937 59.7768 65.0937 59.9468C65.0937 60.1399 65.0666 60.3195 65.0143 60.4899C64.0652 62.7061 62.9681 64.8349 61.723 66.877L61.7175 66.8862C60.4723 68.9699 59.0984 71.1074 57.5951 73.2985L57.5906 73.3051L57.5862 73.3117C57.5491 73.3673 57.4767 73.4713 57.3622 73.6319C57.1998 73.8311 57.0545 74.0437 56.926 74.2685C56.708 74.6501 56.6138 75.0653 56.6138 75.4806C56.6138 76.2937 57.0364 76.9345 57.5724 77.3939L57.5879 77.4071L57.6038 77.4198C58.0987 77.8158 58.6621 78.1195 59.2809 78.3389C59.8481 78.5638 60.4276 78.7235 60.9745 78.7235C61.5798 78.7235 62.1142 78.4929 62.5426 78.1121C62.9674 77.7345 63.2939 77.1606 63.563 76.5712C64.1665 75.3368 64.9827 73.5214 66.0085 71.1366Z" fill="#FF752F"/>
</svg>
